<?xml version="1.0" standalone="no"?>
<!DOCTYPE svg PUBLIC "-//W3C//DTD SVG 20010904//EN"
 "http://www.w3.org/TR/2001/REC-SVG-20010904/DTD/svg10.dtd">
<svg version="1.0" xmlns="http://www.w3.org/2000/svg"
 width="512.000000pt" height="512.000000pt" viewBox="0 0 512.000000 512.000000"
 preserveAspectRatio="xMidYMid meet">

<g transform="translate(0.000000,512.000000) scale(0.100000,-0.100000)"
fill="#000000" stroke="none">
<path d="M2320 5100 c-494 -52 -941 -231 -1340 -538 -196 -151 -446 -432 -590
-662 -73 -116 -191 -362 -235 -490 -223 -644 -185 -1347 103 -1944 136 -281
282 -487 496 -701 217 -217 402 -352 666 -484 528 -264 1107 -336 1700 -209
231 49 550 178 770 312 162 99 319 224 465 370 222 222 354 406 490 681 167
338 248 660 262 1040 20 586 -156 1145 -515 1625 -111 148 -344 381 -492 492
-355 265 -738 425 -1180 493 -124 19 -477 28 -600 15z m450 -201 c379 -35 777
-175 1087 -382 497 -332 841 -823 982 -1398 48 -199 65 -339 65 -559 0 -438
-107 -828 -328 -1205 -125 -212 -338 -459 -529 -614 -541 -438 -1274 -622
-1942 -486 -454 93 -869 313 -1191 632 -195 192 -334 384 -454 626 -250 507
-311 1045 -180 1607 175 750 764 1399 1500 1655 326 113 660 155 990 124z"/>
<path d="M2294 4694 c-879 -106 -1618 -767 -1825 -1631 -234 -980 240 -1988
1146 -2433 598 -294 1294 -294 1890 0 743 366 1207 1112 1205 1937 -2 818
-469 1563 -1205 1923 -375 184 -795 255 -1211 204z m166 -300 c0 -114 0 -116
29 -145 23 -23 38 -29 71 -29 33 0 48 6 71 29 29 29 29 31 29 145 l0 115 53
-5 c337 -33 607 -122 881 -292 73 -45 211 -147 260 -193 6 -5 -25 -44 -72 -93
-75 -79 -82 -89 -82 -127 0 -57 42 -99 99 -99 38 0 48 7 127 82 l85 82 32 -39
c263 -314 421 -689 455 -1080 l8 -85 -113 0 c-124 0 -157 -9 -179 -51 -18 -35
-18 -63 0 -98 22 -42 55 -51 179 -51 l113 0 -8 -85 c-34 -391 -192 -766 -455
-1080 l-32 -39 -85 82 c-79 75 -89 82 -127 82 -57 0 -99 -42 -99 -99 0 -38 7
-48 82 -127 47 -49 78 -88 72 -93 -49 -46 -187 -148 -260 -193 -274 -170 -544
-259 -881 -292 l-53 -5 0 110 c0 122 -11 157 -55 177 -33 15 -57 15 -90 0 -44
-20 -55 -55 -55 -177 l0 -110 -57 5 c-413 37 -786 193 -1117 468 l-30 25 82
85 c75 79 82 89 82 127 0 57 -42 99 -99 99 -38 0 -48 -7 -127 -82 l-85 -82
-25 30 c-270 324 -429 698 -462 1087 l-8 87 113 0 c124 0 157 9 179 51 18 35
18 63 0 98 -22 42 -55 51 -179 51 l-113 0 8 88 c33 388 192 762 462 1086 l25
30 85 -82 c79 -75 89 -82 127 -82 57 0 99 42 99 99 0 38 -7 48 -82 127 l-82
85 30 25 c320 266 680 422 1070 463 44 5 85 9 92 10 9 1 12 -28 12 -115z"/>
<path d="M2511 3796 c-50 -28 -50 -30 -51 -506 l0 -445 -45 -24 c-128 -68
-187 -227 -135 -365 43 -114 160 -196 280 -196 103 0 213 65 261 154 l24 46
292 0 c315 0 334 3 359 51 27 52 8 115 -41 137 -18 8 -113 12 -318 12 l-292 0
-24 45 c-27 51 -76 98 -127 123 l-34 16 0 442 c0 322 -3 450 -12 469 -22 48
-88 68 -137 41z m119 -1171 c35 -36 34 -95 -3 -132 -60 -61 -162 -19 -162 66
0 89 101 130 165 66z"/>
</g>
</svg>
