<?xml version="1.0" standalone="no"?>
<!DOCTYPE svg PUBLIC "-//W3C//DTD SVG 20010904//EN"
 "http://www.w3.org/TR/2001/REC-SVG-20010904/DTD/svg10.dtd">
<svg version="1.0" xmlns="http://www.w3.org/2000/svg"
 width="512.000000pt" height="512.000000pt" viewBox="0 0 512.000000 512.000000"
 preserveAspectRatio="xMidYMid meet">

<g transform="translate(0.000000,512.000000) scale(0.100000,-0.100000)"
fill="#000000" stroke="none">
<path d="M2375 5074 c-16 -2 -73 -9 -125 -15 -259 -29 -543 -114 -795 -238
-507 -249 -903 -643 -1153 -1150 -259 -522 -326 -1098 -197 -1677 100 -442
344 -883 673 -1212 203 -202 416 -354 677 -482 246 -121 478 -193 762 -237
155 -24 527 -24 688 0 291 44 532 120 786 248 399 202 733 501 982 879 146
222 284 547 342 804 47 212 58 316 59 556 1 316 -31 521 -126 809 -206 620
-664 1150 -1253 1448 -257 130 -501 207 -785 248 -108 16 -467 29 -535 19z
m385 -245 c1004 -91 1828 -827 2031 -1813 171 -832 -142 -1699 -806 -2231
-446 -358 -1026 -540 -1583 -497 -726 56 -1367 436 -1760 1045 -75 115 -188
346 -232 472 -88 252 -124 473 -124 755 0 214 14 343 56 519 216 912 974 1607
1893 1735 191 27 348 32 525 15z"/>
<path d="M2249 3680 c-153 -27 -326 -97 -450 -180 -81 -55 -216 -186 -279
-270 -279 -376 -292 -902 -33 -1293 63 -96 207 -244 299 -307 101 -70 240
-134 358 -166 111 -29 286 -46 293 -29 2 6 2 60 1 121 l-3 109 -35 2 c-425 30
-751 308 -841 718 -17 77 -17 273 0 350 71 321 298 576 601 673 270 87 564 41
796 -123 137 -98 266 -268 319 -422 29 -84 55 -226 55 -303 0 -68 -23 -209
-46 -277 -19 -60 -94 -213 -103 -213 -4 0 -26 56 -50 124 l-43 125 -111 -40
c-61 -22 -113 -41 -114 -43 -4 -4 176 -509 185 -517 4 -3 39 -21 79 -39 l71
-32 249 87 c136 48 252 91 256 95 4 4 -8 51 -28 106 -19 54 -37 104 -40 111
-3 10 -92 -16 -205 -61 -11 -5 -2 22 27 81 308 638 -39 1397 -727 1589 -82 22
-119 26 -265 29 -93 2 -191 0 -216 -5z"/>
</g>
</svg>
