<?xml version="1.0" standalone="no"?>
<!DOCTYPE svg PUBLIC "-//W3C//DTD SVG 20010904//EN"
 "http://www.w3.org/TR/2001/REC-SVG-20010904/DTD/svg10.dtd">
<svg version="1.0" xmlns="http://www.w3.org/2000/svg"
 width="512.000000pt" height="512.000000pt" viewBox="0 0 512.000000 512.000000"
 preserveAspectRatio="xMidYMid meet">

<g transform="translate(0.000000,512.000000) scale(0.100000,-0.100000)"
fill="#000000" stroke="none">
<path d="M2415 5069 c-154 -27 -299 -56 -323 -65 -60 -23 -101 -60 -128 -119
-28 -59 -30 -107 -9 -224 8 -47 13 -86 11 -88 -2 -2 -174 -33 -381 -69 -229
-39 -397 -73 -426 -85 -66 -29 -140 -110 -167 -182 -27 -71 -27 -138 -3 -272
17 -87 23 -103 50 -127 17 -15 39 -28 49 -28 18 0 45 5 1517 256 534 91 1084
185 1223 209 260 44 293 55 314 101 16 35 -15 229 -50 307 -44 102 -138 170
-262 192 -23 4 -172 -17 -424 -60 -213 -36 -390 -65 -391 -63 -2 2 -11 45 -20
96 -8 51 -20 105 -26 120 -17 45 -57 90 -105 118 -71 42 -129 40 -449 -17z
m358 -163 c12 -13 44 -183 36 -190 -9 -8 -620 -108 -632 -103 -27 10 -45 206
-19 207 4 1 131 23 282 49 315 56 314 56 333 37z m1096 -255 c29 -16 52 -64
54 -114 l2 -41 -160 -27 c-88 -15 -279 -48 -425 -73 -1442 -246 -2153 -366
-2156 -363 -2 2 -7 30 -10 63 -5 51 -3 63 18 94 13 19 39 40 58 47 29 10 822
148 2295 397 246 42 274 43 324 17z"/>
<path d="M1447 3739 c-118 -28 -223 -126 -258 -241 l-22 -71 86 -1507 c78
-1376 87 -1512 107 -1570 57 -168 207 -303 378 -339 36 -8 326 -11 925 -11
742 0 882 3 936 15 211 50 366 233 386 458 17 183 166 2892 162 2949 -8 127
-84 234 -205 291 l-67 32 -1195 2 c-675 0 -1211 -3 -1233 -8z m2388 -200 c50
-14 102 -65 110 -110 3 -19 -32 -698 -79 -1509 -68 -1184 -88 -1484 -101
-1522 -23 -65 -85 -131 -153 -165 l-57 -28 -895 0 -895 0 -57 28 c-66 32 -112
80 -145 153 -23 52 -25 82 -108 1536 -47 816 -83 1495 -80 1509 9 40 55 88
100 104 33 12 226 14 1180 15 798 0 1152 -3 1180 -11z"/>
<path d="M1748 3357 c-93 -27 -173 -107 -200 -201 -15 -54 115 -2470 138
-2545 17 -58 71 -122 131 -158 66 -38 178 -44 251 -13 69 30 136 104 158 175
17 52 15 93 -50 1277 -47 852 -71 1239 -81 1274 -18 64 -87 143 -149 173 -59
27 -139 34 -198 18z m148 -238 c7 -14 38 -496 78 -1227 58 -1071 64 -1207 51
-1232 -33 -64 -133 -50 -150 22 -2 13 -34 563 -70 1222 -65 1184 -66 1200 -47
1225 10 14 30 28 43 32 33 8 82 -13 95 -42z"/>
<path d="M2590 3361 c-85 -26 -156 -87 -191 -165 -15 -33 -19 -66 -19 -169 l0
-129 29 -29 c40 -40 89 -40 133 0 33 29 33 31 36 128 4 128 7 140 43 159 36
18 70 13 99 -16 20 -20 20 -39 20 -1248 l0 -1229 -23 -21 c-32 -30 -87 -29
-115 1 l-22 23 -2 758 -3 758 -33 29 c-44 40 -93 40 -133 0 l-29 -29 0 -769
c0 -868 -3 -827 76 -909 60 -61 122 -88 204 -88 114 0 206 59 257 162 l28 57
0 1255 0 1255 -24 53 c-56 124 -210 200 -331 163z"/>
<path d="M3435 3361 c-117 -31 -206 -131 -220 -247 -13 -114 -136 -2432 -130
-2463 17 -90 86 -175 174 -214 55 -24 176 -20 231 7 71 37 136 116 153 187 7
29 137 2345 137 2440 0 81 -15 127 -59 185 -62 83 -192 130 -286 105z m128
-233 c19 -26 19 -33 -48 -1239 -36 -668 -71 -1221 -76 -1231 -13 -24 -42 -38
-76 -38 -32 1 -55 15 -71 45 -12 24 112 2373 129 2438 18 67 100 82 142 25z"/>
<path d="M2409 2611 c-62 -62 -20 -171 65 -171 25 0 45 9 68 29 27 24 33 36
33 71 0 35 -6 47 -33 71 -44 40 -93 40 -133 0z"/>
</g>
</svg>
