<?xml version="1.0" standalone="no"?>
<!DOCTYPE svg PUBLIC "-//W3C//DTD SVG 20010904//EN"
 "http://www.w3.org/TR/2001/REC-SVG-20010904/DTD/svg10.dtd">
<svg version="1.0" xmlns="http://www.w3.org/2000/svg"
 width="512.000000pt" height="512.000000pt" viewBox="0 0 512.000000 512.000000"
 preserveAspectRatio="xMidYMid meet">

<g transform="translate(0.000000,512.000000) scale(0.100000,-0.100000)"
fill="#000000" stroke="none">
<path d="M2384 5110 c-950 -64 -1797 -665 -2172 -1540 -210 -489 -262 -1048
-146 -1570 214 -958 977 -1721 1934 -1934 361 -80 760 -80 1117 0 965 215
1722 972 1937 1937 80 357 80 757 0 1117 -150 673 -575 1264 -1170 1625 -352
215 -739 336 -1164 365 -158 11 -173 11 -336 0z m1188 -1538 l33 -32 0 -980 0
-980 -33 -32 -32 -33 -980 0 -980 0 -32 33 -33 32 0 979 0 979 25 27 c14 15
34 31 45 36 11 4 455 7 987 6 l968 -2 32 -33z"/>
</g>
</svg>
